<?xml version="1.0" encoding="UTF-8"?>
<svg id="New_Layer" xmlns="http://www.w3.org/2000/svg" version="1.1" viewBox="0 0 131.61 186.01">
  <!-- Generator: Adobe Illustrator 30.5.1, SVG Export Plug-In . SVG Version: 2.1.4 Build 3)  -->
  <defs>
    <style>
      .st0 {
        fill: #0f1037;
        font-family: Arial-BoldItalicMT, Arial;
        font-size: 30px;
        font-style: italic;
        font-weight: 700;
        stroke: #101237;
        stroke-miterlimit: 10;
        stroke-width: .75px;
      }

      .st1 {
        fill: #0d6333;
      }

      .st1, .st2 {
        fill-rule: evenodd;
      }

      .st3 {
        fill: #9a1c22;
      }
    </style>
  </defs>
  <path class="st1" d="M70.85,1.16c-4.35.98-17.45,3.92-25.82,15.71-2.51,3.54-5.51,10.7-6.31,15.14-.51,2.79-.68,8.21-.31,10.79l.23,1.65-1.08.6c-3.57,2.01-11.93,10.19-17.09,16.75-8.33,10.64-14.12,21.76-15.78,30.36-.87,4.51-1.49,12.35,2.94,16.27,3.26,2.89,6.24,2.61,7.67,5.48,1.81,3.62-1.89,7.44-6.53,16.28,0,0-6.78,12.92-8.53,29.91-.33,3.17-.66,8.39,1.85,9.75,1.28.7,3.14.39,5.51-.25,1.77-.48,4.02-1.26,4.97-1.77l1.71-.87-.54,1.17c-1.46,3.15-2.11,8.66-1.23,10.4.51,1.05,1.85,1.68,3.05,1.41,6.49-1.46,16.92-15.62,16.92-15.62,11.28-17.85,11.91-28.98,20.52-31.02,1.52-.36,3.14-.23,6.36.15,10.16,1.2,15.67,2.79,21.23,6.14,4.22,2.55,7.05,2.37,8.47-.6,1.43-3.03.2-7.61-3.02-11.15-.86-.96-1.51-1.8-1.46-1.86,5.17.09,8.9,1.29,11.33,2.34,5.86,2.54,8.33,6.09,13.82,6.05,1.33,0,3.79-.04,5.16-1.67,2.68-3.2-.97-9.5-1.6-10.37-1.31-1.83-3.91-4.53-5.22-5.42l-.68-.45,1.14-.66c3.61-2.23,9.39-6.44,14.32-13.52,1.4-2.01,7.18-10.62,8.5-23.32,1.16-11.1-1.66-19.81-3.6-25.78-3.96-12.22-5.94-18.33-8.53-21.04-.35-.37-1.91-1.95-1.48-3.24.55-1.68,3.88-1.23,4.86-3.21.5-1,.08-2.15-.55-3.83-1.14-3.03-3-5.84-5.91-8.9C105.95,2.27,89.68.68,89.68.68c-3.41-.5-10.26-1.45-18.83.48ZM35.41,140.32,23.2,151.22c.43-3.44,1.26-5.12.57-5.62-.6-.43-1.89.34-4.94,2.6-2.19,1.62-4.61,3.52-7.19,5.72,1.85-7.72,3.62-14.24,5.05-19.25,4.04-14.14,5.72-17.49,9.12-19.52,3.64-2.18,5.4-.55,11.65-2.62,6.12-2.03,10.01-5.44,13.13-8.18,13.94-12.21,16.98-28.67,18.06-34.5,1.95-10.55.05-14.54-.93-16.2-3.35-5.69-10.32-8.54-11.21-7.51-.87,1,4.92,4.64,7.12,11.13,4.65,13.73-9.66,31.66-22.17,40.31,0,0-12.11,8.36-22.2,6.36-1.24-.25-4.17-.83-5.52-3.15-1.27-2.18-.5-4.82-.01-6.32,3.88-11.96,12.93-24.46,12.93-24.46,6.08-8.4,9.12-12.61,11.48-14.48.89-.71,4.21-3.22,7.13-7.66.13-.2.66-.93,1.05-1.72,3.25-6.66.48-10.13,3.89-17.94.51-1.17,2.27-4.98,5.9-8.68,6.19-6.32,13.59-8.01,17.46-8.84,1.61-.35,8.58-1.6,17.41.15,4.85.96,9.9,3.03,13.92,5.78,4.05,2.73,9.5,9.68,10.04,12.74.11.64.08,1.01-.1,1.11-.35.19-1.18-.71-1.5-1.05-1.81-1.92-6.26-5.74-8.35-4.83-.4.17-.95.62-.89,1.01.06.41.75.59.91.68,3.51,1.92,9.84,9.11,12.21,13.88.46.93.77,1.8.66,1.89-6.64,1.49-11.26.68-14.31-.38-2.67-.93-6.65-2.94-7.69-1.71-.18.21-.3.55-.21,1.19.6,4.28,9.07,10.53,17.83,9.86,1.04-.08,1.86-.24,2.28-.33,1.52,3.32,3.34,8.14,4.31,14.18.62,3.89,1.9,11.88-.63,20.5-4.17,14.21-17.74,26.08-30.42,28.14-4.09.67-6.31.09-14.71,1.45-4.86.78-8.81,1.73-11.43,2.42,2.13-.23,6.3-.33,10.36,2.01,4.76,2.75,7.67,7.89,6.91,8.72-.54.59-2.56-1.41-7.37-3.09-2.84-.99-5.9-1.28-11.89-1.88-5.63-.56-5.68-.34-8.28-.69-3.16-.42-7.72-1.36-13.18-3.75l-1.85-.96c.1,1.65.52,3.92,2.2,5.42,2.18,1.95,5.05,1.35,5.65,2.82.46,1.13-1.27,2.3-2.54,4.44-3.46,5.83-7.33,11.42-11.1,17.05-5.62,8.4-7.32,11.19-8.25,10.82-1.18-.47-.53-5.72-.36-7.05Z"/>
  <path class="st2" d="M40.05,93.31"/>
  <ellipse class="st3" cx="78.04" cy="32.44" rx="5.73" ry="7.27"/>
  <text class="st0" transform="translate(42.6 174.34)"><tspan x="0" y="0">BRML</tspan></text>
</svg>